<svg xmlns="http://www.w3.org/2000/svg" viewBox="0 0 84 84" role="img" aria-label="QR code">
  <rect width="84" height="84" fill="#fff"/>
  <g fill="#111827">
    <path d="M4 4h24v24H4zM8 8v16h16V8zM12 12h8v8h-8zM56 4h24v24H56zM60 8v16h16V8zM64 12h8v8h-8zM4 56h24v24H4zM8 60v16h16V60zM12 64h8v8h-8z"/>
    <path d="M36 4h6v6h-6zM46 4h6v6h-6zM34 14h8v6h-8zM46 14h4v10h-4zM34 26h6v8h-6zM44 28h8v6h-8zM58 32h6v8h-6zM68 32h12v6H68zM32 38h8v6h-8zM44 38h6v12h-6zM54 42h8v6h-8zM66 42h6v8h-6zM74 50h6v8h-6zM34 52h6v8h-6zM44 54h8v6h-8zM56 52h6v12h-6zM66 56h6v6h-6zM32 66h8v6h-8zM44 66h6v10h-6zM54 70h8v6h-8zM66 66h6v8h-6zM76 68h4v12h-4z"/>
  </g>
</svg>
